<?xml version="1.0" encoding="UTF-8"?>
<svg version="1.1" xmlns="http://www.w3.org/2000/svg" width="225" height="225">
<path d="M0 0 C74.25 0 148.5 0 225 0 C225 74.25 225 148.5 225 225 C150.75 225 76.5 225 0 225 C0 150.75 0 76.5 0 0 Z " fill="#E2221A" transform="translate(0,0)"/>
<path d="M0 0 C74.25 0 148.5 0 225 0 C225 74.25 225 148.5 225 225 C150.75 225 76.5 225 0 225 C0 150.75 0 76.5 0 0 Z M46 1 C38.71099032 26.37088128 32.09376174 51.91642578 26.03149414 77.60742188 C24.43019498 84.34760421 22.65379681 91.01869047 20.75292969 97.67993164 C19.16301234 103.28894944 17.81429044 108.93341611 16.5168457 114.61621094 C15.34082834 119.70505216 13.99263828 124.72712915 12.5625 129.75 C10.42456183 137.26198592 8.58119491 144.82124094 6.81591797 152.42871094 C5.33378288 158.76114788 3.6257256 164.97394431 1.69921875 171.1875 C1.02058676 173.9171929 0.86111636 176.20175186 1 179 C15.57013862 183.36078093 30.26248138 187.13099972 45.03027344 190.75170898 C52.97795605 192.7061182 60.85847253 194.789212 68.71899414 197.07568359 C73.94119282 198.54686777 79.21562521 199.77483285 84.5 201 C92.1497569 202.77357421 99.69964431 204.74634585 107.24169922 206.93359375 C113.49146742 208.70694619 119.78259219 210.31660334 126.07592773 211.92724609 C128.30067212 212.49697105 130.52439876 213.07054427 132.74804688 213.64453125 C140.92809346 215.74828228 149.1211085 217.77145254 157.35542297 219.6529541 C161.18924697 220.53692152 164.94263774 221.543854 168.6875 222.75 C172.22375612 223.86830322 175.25854918 224.2953777 179 224 C181.08602477 219.35169757 182.12887209 214.56303083 183.25878906 209.61962891 C185.95641246 198.06334125 188.88938114 186.57473665 191.859375 175.0859375 C192.41376605 172.9353978 192.96798143 170.7848128 193.52203369 168.63418579 C194.97010753 163.01514624 196.42045081 157.39669505 197.87133789 151.77838135 C199.31919369 146.17030359 200.76501482 140.56170142 202.2109375 134.953125 C203.90003757 128.40167039 205.58938522 121.85028023 207.28015137 115.29925537 C209.76799855 105.6594568 212.25394505 96.01919296 214.72851562 86.37597656 C214.93762196 85.56138033 215.14672829 84.7467841 215.36217117 83.90750313 C216.3128125 80.20385775 217.26266037 76.50001287 218.21087646 72.79574585 C218.53864075 71.51817413 218.86640503 70.24060242 219.20410156 68.92431641 C219.50707153 67.74202454 219.8100415 66.55973267 220.12219238 65.34161377 C221.17570807 61.33111939 222.3087896 57.34582147 223.47943115 53.36801147 C224.03411486 50.8448152 224.09229912 48.57538878 224 46 C214.56745388 42.81206195 204.98035738 40.50045389 195.29833984 38.21459961 C188.40795622 36.58586062 181.56540853 34.8584004 174.734375 32.99609375 C169.36717736 31.56446676 163.97414936 30.23898396 158.5769043 28.92553711 C153.77763359 27.74345317 149.02787768 26.44174264 144.28125 25.0625 C137.08961792 22.98955204 129.8458142 21.21809769 122.5625 19.5 C110.42008991 16.60088313 98.35795548 13.56970648 86.375 10.0625 C77.79001395 7.58304627 69.09023492 5.58914259 60.38769531 3.56933594 C58.12126531 3.02891521 55.87038769 2.44429061 53.6171875 1.8515625 C49.97041923 0.84722899 49.97041923 0.84722899 46 1 Z " fill="#FEFDFD" transform="translate(0,0)"/>
<path d="M0 0 C10.02277412 1.18644146 19.43993665 3.61497949 29.09985352 6.45922852 C31.05715427 7.0162658 33.02334611 7.51661054 35 8 C34.30324673 15.12430217 32.70031622 21.92936864 31 28.875 C30.72671875 30.01453125 30.4534375 31.1540625 30.171875 32.328125 C28.1374568 40.72508641 28.1374568 40.72508641 27 43 C14.94801977 42.43284799 3.45147012 38.5566919 -8 35 C-7.27295775 29.05295777 -5.97404352 23.31901614 -4.5625 17.5 C-4.34529297 16.58863281 -4.12808594 15.67726563 -3.90429688 14.73828125 C-2.71497093 9.78811382 -1.44197484 4.88259388 0 0 Z " fill="#FEFBFB" transform="translate(99,91)"/>
</svg>
